<svg id="visual" viewBox="0 0 900 600" width="900" height="600" xmlns="http://www.w3.org/2000/svg" xmlns:xlink="http://www.w3.org/1999/xlink" version="1.1"><rect x="0" y="0" width="900" height="600" fill="#96a9a4"></rect><defs><linearGradient id="grad1_0" x1="33.3%" y1="0%" x2="100%" y2="100%"><stop offset="20%" stop-color="#96a9a4" stop-opacity="1"></stop><stop offset="80%" stop-color="#96a9a4" stop-opacity="1"></stop></linearGradient></defs><defs><linearGradient id="grad2_0" x1="0%" y1="0%" x2="66.7%" y2="100%"><stop offset="20%" stop-color="#96a9a4" stop-opacity="1"></stop><stop offset="80%" stop-color="#96a9a4" stop-opacity="1"></stop></linearGradient></defs><g transform="translate(900, 0)"><path d="M0 351.5C-44.1 342 -88.3 332.4 -131.3 316.9C-174.3 301.4 -216.1 280.1 -248.6 248.6C-281 217.1 -304.1 175.5 -319.7 132.4C-335.3 89.3 -343.4 44.6 -351.5 0L0 0Z" fill="#1e1e1e"></path></g><g transform="translate(0, 600)"><path d="M0 -351.5C46.5 -342.4 92.9 -333.4 129 -311.3C165 -289.3 190.6 -254.4 224.9 -224.9C259.2 -195.3 302.2 -171.1 324.8 -134.5C347.4 -97.9 349.4 -49 351.5 0L0 0Z" fill="#1e1e1e"></path></g></svg>