<svg id="visual" viewBox="0 0 960 540" width="960" height="540" xmlns="http://www.w3.org/2000/svg" xmlns:xlink="http://www.w3.org/1999/xlink" version="1.1"><rect x="0" y="0" width="960" height="540" fill="#1e1e1e"></rect><defs><linearGradient id="grad1_0" x1="43.8%" y1="100%" x2="100%" y2="0%"><stop offset="14.444444444444446%" stop-color="#3e675c" stop-opacity="1"></stop><stop offset="85.55555555555554%" stop-color="#3e675c" stop-opacity="1"></stop></linearGradient></defs><defs><linearGradient id="grad1_1" x1="43.8%" y1="100%" x2="100%" y2="0%"><stop offset="14.444444444444446%" stop-color="#3e675c" stop-opacity="1"></stop><stop offset="85.55555555555554%" stop-color="#344d46" stop-opacity="1"></stop></linearGradient></defs><defs><linearGradient id="grad1_2" x1="43.8%" y1="100%" x2="100%" y2="0%"><stop offset="14.444444444444446%" stop-color="#293531" stop-opacity="1"></stop><stop offset="85.55555555555554%" stop-color="#344d46" stop-opacity="1"></stop></linearGradient></defs><defs><linearGradient id="grad1_3" x1="43.8%" y1="100%" x2="100%" y2="0%"><stop offset="14.444444444444446%" stop-color="#293531" stop-opacity="1"></stop><stop offset="85.55555555555554%" stop-color="#1e1e1e" stop-opacity="1"></stop></linearGradient></defs><defs><linearGradient id="grad2_0" x1="0%" y1="100%" x2="56.3%" y2="0%"><stop offset="14.444444444444446%" stop-color="#3e675c" stop-opacity="1"></stop><stop offset="85.55555555555554%" stop-color="#3e675c" stop-opacity="1"></stop></linearGradient></defs><defs><linearGradient id="grad2_1" x1="0%" y1="100%" x2="56.3%" y2="0%"><stop offset="14.444444444444446%" stop-color="#344d46" stop-opacity="1"></stop><stop offset="85.55555555555554%" stop-color="#3e675c" stop-opacity="1"></stop></linearGradient></defs><defs><linearGradient id="grad2_2" x1="0%" y1="100%" x2="56.3%" y2="0%"><stop offset="14.444444444444446%" stop-color="#344d46" stop-opacity="1"></stop><stop offset="85.55555555555554%" stop-color="#293531" stop-opacity="1"></stop></linearGradient></defs><defs><linearGradient id="grad2_3" x1="0%" y1="100%" x2="56.3%" y2="0%"><stop offset="14.444444444444446%" stop-color="#1e1e1e" stop-opacity="1"></stop><stop offset="85.55555555555554%" stop-color="#293531" stop-opacity="1"></stop></linearGradient></defs><g transform="translate(960, 540)"><path d="M-513 0C-503.6 -67.3 -494.3 -134.6 -468.4 -194C-442.5 -253.4 -400.2 -304.9 -353.6 -353.6C-306.9 -402.2 -256 -447.9 -196.3 -474C-136.7 -500 -68.3 -506.5 0 -513L0 0Z" fill="#242928"></path><path d="M-384.7 0C-377.7 -50.5 -370.7 -101 -351.3 -145.5C-331.9 -190.1 -300.2 -228.7 -265.2 -265.2C-230.2 -301.6 -192 -335.9 -147.2 -355.5C-102.5 -375 -51.3 -379.9 0 -384.7L0 0Z" fill="#2f413c"></path><path d="M-256.5 0C-251.8 -33.7 -247.1 -67.3 -234.2 -97C-221.3 -126.7 -200.1 -152.5 -176.8 -176.8C-153.5 -201.1 -128 -223.9 -98.2 -237C-68.3 -250 -34.2 -253.3 0 -256.5L0 0Z" fill="#395a51"></path><path d="M-128.2 0C-125.9 -16.8 -123.6 -33.7 -117.1 -48.5C-110.6 -63.4 -100.1 -76.2 -88.4 -88.4C-76.7 -100.5 -64 -112 -49.1 -118.5C-34.2 -125 -17.1 -126.6 0 -128.2L0 0Z" fill="#3e675c"></path></g><g transform="translate(0, 0)"><path d="M513 0C498.2 65.7 483.4 131.3 456.4 189C429.4 246.8 390.1 296.6 346.5 346.5C302.8 396.3 254.8 446.2 196.3 474C137.8 501.7 68.9 507.4 0 513L0 0Z" fill="#242928"></path><path d="M384.8 0C373.7 49.2 362.6 98.5 342.3 141.8C322 185.1 292.6 222.5 259.9 259.9C227.1 297.3 191.1 334.6 147.2 355.5C103.4 376.3 51.7 380.5 0 384.8L0 0Z" fill="#2f413c"></path><path d="M256.5 0C249.1 32.8 241.7 65.7 228.2 94.5C214.7 123.4 195.1 148.3 173.2 173.2C151.4 198.2 127.4 223.1 98.2 237C68.9 250.9 34.5 253.7 0 256.5L0 0Z" fill="#395a51"></path><path d="M128.3 0C124.6 16.4 120.9 32.8 114.1 47.3C107.3 61.7 97.5 74.2 86.6 86.6C75.7 99.1 63.7 111.5 49.1 118.5C34.5 125.4 17.2 126.8 0 128.3L0 0Z" fill="#3e675c"></path></g></svg>