<svg id="visual" viewBox="0 0 960 540" width="960" height="540" xmlns="http://www.w3.org/2000/svg" xmlns:xlink="http://www.w3.org/1999/xlink" version="1.1"><path d="M0 109L69 114L137 104L206 120L274 66L343 206L411 131L480 82L549 104L617 158L686 190L754 185L823 158L891 87L960 152L960 0L891 0L823 0L754 0L686 0L617 0L549 0L480 0L411 0L343 0L274 0L206 0L137 0L69 0L0 0Z" fill="#1e1e1e"></path><path d="M0 201L69 195L137 152L206 147L274 136L343 244L411 190L480 179L549 195L617 185L686 244L754 266L823 249L891 109L960 179L960 150L891 85L823 156L754 183L686 188L617 156L549 102L480 80L411 129L343 204L274 64L206 118L137 102L69 112L0 107Z" fill="#313c39"></path><path d="M0 233L69 249L137 174L206 206L274 179L343 298L411 244L480 206L549 212L617 201L686 260L754 314L823 298L891 125L960 201L960 177L891 107L823 247L754 264L686 242L617 183L549 193L480 177L411 188L343 242L274 134L206 145L137 150L69 193L0 199Z" fill="#435d56"></path><path d="M0 293L69 314L137 195L206 233L274 206L343 352L411 309L480 255L549 244L617 255L686 287L754 341L823 320L891 185L960 239L960 199L891 123L823 296L754 312L686 258L617 199L549 210L480 204L411 242L343 296L274 177L206 204L137 172L69 247L0 231Z" fill="#52796f"></path><path d="M0 406L69 384L137 352L206 352L274 352L343 428L411 395L480 395L549 352L617 352L686 395L754 411L823 395L891 411L960 320L960 237L891 183L823 318L754 339L686 285L617 253L549 242L480 253L411 307L343 350L274 204L206 231L137 193L69 312L0 291Z" fill="#52796f"></path><path d="M0 417L69 406L137 363L206 395L274 401L343 471L411 422L480 428L549 395L617 374L686 438L754 428L823 449L891 465L960 336L960 318L891 409L823 393L754 409L686 393L617 350L549 350L480 393L411 393L343 426L274 350L206 350L137 350L69 382L0 404Z" fill="#435d56"></path><path d="M0 482L69 492L137 465L206 519L274 476L343 503L411 498L480 514L549 476L617 503L686 476L754 525L823 509L891 503L960 471L960 334L891 463L823 447L754 426L686 436L617 372L549 393L480 426L411 420L343 469L274 399L206 393L137 361L69 404L0 415Z" fill="#313c39"></path><path d="M0 541L69 541L137 541L206 541L274 541L343 541L411 541L480 541L549 541L617 541L686 541L754 541L823 541L891 541L960 541L960 469L891 501L823 507L754 523L686 474L617 501L549 474L480 512L411 496L343 501L274 474L206 517L137 463L69 490L0 480Z" fill="#1e1e1e"></path></svg>