<svg id="visual" viewBox="0 0 960 540" width="960" height="540" xmlns="http://www.w3.org/2000/svg" xmlns:xlink="http://www.w3.org/1999/xlink" version="1.1"><rect x="0" y="0" width="960" height="540" fill="#d9d9d9"></rect><path d="M0 438L10.7 437.2C21.3 436.3 42.7 434.7 64 425.8C85.3 417 106.7 401 128 400.8C149.3 400.7 170.7 416.3 192 428.7C213.3 441 234.7 450 256 447.5C277.3 445 298.7 431 320 424.3C341.3 417.7 362.7 418.3 384 418.5C405.3 418.7 426.7 418.3 448 406.7C469.3 395 490.7 372 512 377.5C533.3 383 554.7 417 576 426.2C597.3 435.3 618.7 419.7 640 405C661.3 390.3 682.7 376.7 704 374.2C725.3 371.7 746.7 380.3 768 393.7C789.3 407 810.7 425 832 435.8C853.3 446.7 874.7 450.3 896 441.5C917.3 432.7 938.7 411.3 949.3 400.7L960 390L960 541L949.3 541C938.7 541 917.3 541 896 541C874.7 541 853.3 541 832 541C810.7 541 789.3 541 768 541C746.7 541 725.3 541 704 541C682.7 541 661.3 541 640 541C618.7 541 597.3 541 576 541C554.7 541 533.3 541 512 541C490.7 541 469.3 541 448 541C426.7 541 405.3 541 384 541C362.7 541 341.3 541 320 541C298.7 541 277.3 541 256 541C234.7 541 213.3 541 192 541C170.7 541 149.3 541 128 541C106.7 541 85.3 541 64 541C42.7 541 21.3 541 10.7 541L0 541Z" fill="#1e1e1e" stroke-linecap="round" stroke-linejoin="miter"></path></svg>