<svg id="visual" viewBox="0 0 900 600" width="900" height="600" xmlns="http://www.w3.org/2000/svg" xmlns:xlink="http://www.w3.org/1999/xlink" version="1.1"><rect x="0" y="0" width="900" height="600" fill="#d9d9d9"></rect><path d="M0 430L15 440.7C30 451.3 60 472.7 90 486.5C120 500.3 150 506.7 180 503.7C210 500.7 240 488.3 270 465.2C300 442 330 408 360 405.5C390 403 420 432 450 461C480 490 510 519 540 531.2C570 543.3 600 538.7 630 520C660 501.3 690 468.7 720 442.8C750 417 780 398 810 409.5C840 421 870 463 885 484L900 505L900 601L885 601C870 601 840 601 810 601C780 601 750 601 720 601C690 601 660 601 630 601C600 601 570 601 540 601C510 601 480 601 450 601C420 601 390 601 360 601C330 601 300 601 270 601C240 601 210 601 180 601C150 601 120 601 90 601C60 601 30 601 15 601L0 601Z" fill="#1e1e1e" stroke-linecap="round" stroke-linejoin="miter"></path></svg>