<svg id="visual" viewBox="0 0 960 540" width="960" height="540" xmlns="http://www.w3.org/2000/svg" xmlns:xlink="http://www.w3.org/1999/xlink" version="1.1"><rect x="0" y="0" width="960" height="540" fill="#d9d9d9"></rect><path d="M0 116L12.3 116.5C24.7 117 49.3 118 74 116.3C98.7 114.7 123.3 110.3 148 108C172.7 105.7 197.3 105.3 221.8 114.8C246.3 124.3 270.7 143.7 295.2 152.3C319.7 161 344.3 159 369 148.8C393.7 138.7 418.3 120.3 443 122C467.7 123.7 492.3 145.3 517 152.3C541.7 159.3 566.3 151.7 591 145C615.7 138.3 640.3 132.7 664.8 137.5C689.3 142.3 713.7 157.7 738.2 153.3C762.7 149 787.3 125 812 124.5C836.7 124 861.3 147 886 149.8C910.7 152.7 935.3 135.3 947.7 126.7L960 118L960 0L947.7 0C935.3 0 910.7 0 886 0C861.3 0 836.7 0 812 0C787.3 0 762.7 0 738.2 0C713.7 0 689.3 0 664.8 0C640.3 0 615.7 0 591 0C566.3 0 541.7 0 517 0C492.3 0 467.7 0 443 0C418.3 0 393.7 0 369 0C344.3 0 319.7 0 295.2 0C270.7 0 246.3 0 221.8 0C197.3 0 172.7 0 148 0C123.3 0 98.7 0 74 0C49.3 0 24.7 0 12.3 0L0 0Z" fill="#1e1e1e" stroke-linecap="round" stroke-linejoin="miter"></path></svg>