<svg width="40" height="41" viewBox="0 0 40 41" fill="none" xmlns="http://www.w3.org/2000/svg">
<g clip-path="url(#clip0_467_282)">
<path d="M33.6934 11.1916L33.4734 10.0816C33.275 9.08494 32.8267 8.14327 31.805 7.78327C31.4767 7.66827 31.105 7.61994 30.855 7.3816C30.6017 7.14327 30.5284 6.7716 30.47 6.42827C30.3617 5.79827 30.2617 5.16827 30.15 4.53994C30.055 3.99827 29.98 3.38994 29.7334 2.89494C29.4084 2.22827 28.7384 1.83827 28.0734 1.5816C27.7321 1.45398 27.3837 1.34603 27.03 1.25827C25.3634 0.819935 23.6134 0.658268 21.9017 0.564935C19.8463 0.451925 17.7855 0.486458 15.735 0.668268C14.21 0.806602 12.6017 0.974935 11.1517 1.5016C10.6217 1.69493 10.075 1.92827 9.67171 2.3366C9.17671 2.83993 9.01671 3.61993 9.37671 4.2466C9.63338 4.6916 10.0684 5.0066 10.53 5.21327C11.13 5.48327 11.7584 5.6866 12.4017 5.82327C14.1934 6.21994 16.05 6.37493 17.88 6.43993C19.91 6.52327 21.9417 6.4566 23.9634 6.24327C24.4617 6.18827 24.96 6.1216 25.4567 6.04493C26.0434 5.95493 26.42 5.18994 26.2467 4.65494C26.04 4.0166 25.485 3.76993 24.8567 3.8666C24.08 3.98993 23.2567 4.0466 22.5534 4.10993C20.5917 4.24327 18.6234 4.2466 16.66 4.11993C16.0158 4.0773 15.3728 4.01784 14.7317 3.9416C14.5884 3.92494 14.4317 3.89994 14.3017 3.8816C13.8967 3.8216 13.495 3.74827 13.095 3.66494C12.91 3.61994 12.91 3.3566 13.095 3.3116H13.1034C13.565 3.2116 14.0317 3.1316 14.5 3.0666H14.5034C14.7217 3.0516 14.9417 3.01327 15.16 2.9866C17.0566 2.78976 18.9644 2.72294 20.87 2.7866C21.9934 2.81827 23.115 2.89827 24.2317 3.0266L24.6117 3.07827C25.0567 3.14494 25.5 3.22494 25.9417 3.31994C26.595 3.4616 27.4334 3.50827 27.725 4.22327C27.8167 4.4516 27.8584 4.70327 27.91 4.9416L28.4417 7.41494C28.453 7.46797 28.4532 7.52275 28.4424 7.57588C28.4316 7.62901 28.41 7.67934 28.3788 7.72374C28.3477 7.76815 28.3078 7.80567 28.2616 7.83397C28.2153 7.86228 28.1637 7.88076 28.11 7.88827H28.105C28.0434 7.89827 27.98 7.90494 27.9184 7.91327C25.2968 8.24774 22.6562 8.41198 20.0134 8.40494C17.3947 8.40224 14.7789 8.23301 12.1817 7.89827C11.9484 7.86994 11.6934 7.82827 11.4867 7.79827C10.9434 7.71827 10.405 7.61827 9.86505 7.52994C9.21005 7.4216 8.58505 7.4766 7.99338 7.79827C7.51005 8.06494 7.11505 8.4716 6.86838 8.9666C6.61171 9.49327 6.53671 10.0666 6.42338 10.6333C6.30838 11.1999 6.13005 11.8116 6.19838 12.3933C6.34338 13.6483 7.22005 14.6683 8.48171 14.8966C14.7208 16.01 21.0876 16.2211 27.3867 15.5233C27.5064 15.5097 27.6276 15.5231 27.7414 15.5625C27.8552 15.602 27.9587 15.6665 28.0443 15.7512C28.1298 15.836 28.1953 15.9389 28.2358 16.0523C28.2763 16.1657 28.2909 16.2868 28.2784 16.4066L28.16 17.5683L26.4634 34.0799C26.395 34.7633 26.385 35.4666 26.255 36.1416C26.0517 37.2033 25.3334 37.8549 24.285 38.0933C23.3234 38.3116 22.3434 38.4266 21.3584 38.4349C20.265 38.4416 19.175 38.3933 18.0817 38.3983C16.9167 38.4049 15.4884 38.2983 14.59 37.4316C13.7984 36.6683 13.69 35.4749 13.5817 34.4433L12.3634 22.7549L11.8267 17.5983C11.765 17.0133 11.35 16.4399 10.6967 16.4683C10.1367 16.4933 9.50005 16.9683 9.56671 17.5999L9.94671 21.2416L11.5284 36.4283C11.7734 38.6683 13.485 39.8749 15.605 40.2149C16.8417 40.4149 18.11 40.4549 19.3667 40.4749C20.9767 40.5016 22.6034 40.5633 24.1867 40.2716C26.5334 39.8416 28.295 38.2749 28.5467 35.8433C29.1134 30.2899 29.685 24.7383 30.2534 19.1849L30.6117 15.7066C30.6294 15.5341 30.7021 15.3719 30.8192 15.244C30.9363 15.1161 31.0915 15.0294 31.2617 14.9966C31.9317 14.8666 32.5734 14.6433 33.0517 14.1333C33.81 13.3199 33.9617 12.2616 33.6934 11.1916ZM31.23 12.4783C30.9884 12.7066 30.625 12.8133 30.2667 12.8666C26.24 13.4649 22.1567 13.7666 18.0867 13.6333C15.1734 13.5333 12.2917 13.2099 9.40838 12.8033C9.12505 12.7633 8.82005 12.7116 8.62505 12.5033C8.25838 12.1099 8.44005 11.3199 8.53505 10.8449C8.62171 10.4116 8.78838 9.82994 9.30671 9.76827C10.1134 9.67327 11.05 10.0149 11.85 10.1349C12.8117 10.2816 13.7767 10.3999 14.745 10.4883C18.8784 10.8649 23.0817 10.8049 27.1984 10.2549C27.9484 10.1549 28.6967 10.0383 29.44 9.90494C30.105 9.78494 30.84 9.5616 31.24 10.2483C31.5167 10.7166 31.5534 11.3433 31.51 11.8716C31.4969 12.1023 31.3962 12.3193 31.2284 12.4783H31.23ZM20.965 18.9783C19.5284 19.5949 17.8984 20.2916 15.7834 20.2916C14.8994 20.2895 14.0198 20.1678 13.1684 19.9299L14.63 34.9366C14.7384 36.2366 15.825 37.2366 17.13 37.2366C17.13 37.2366 19.2017 37.3449 19.8934 37.3449C20.6384 37.3449 22.87 37.2366 22.87 37.2366C24.175 37.2366 25.26 36.2366 25.3684 34.9366L26.935 18.3533C26.2282 18.0977 25.4833 17.9636 24.7317 17.9566C23.355 17.9566 22.2467 18.4299 20.965 18.9783Z" fill="white"/>
</g>
<defs>
<clipPath id="clip0_467_282">
<rect width="40" height="40" fill="white" transform="translate(0 0.5)"/>
</clipPath>
</defs>
</svg>
